<svg xmlns="http://www.w3.org/2000/svg" xmlns:xlink="http://www.w3.org/1999/xlink" width="300" zoomAndPan="magnify" viewBox="0 0 224.87999 74.999997" height="100" preserveAspectRatio="xMidYMid meet" version="1.0"><defs><filter x="0%" y="0%" width="100%" height="100%" id="3c9ccfb887"><feColorMatrix values="0 0 0 0 1 0 0 0 0 1 0 0 0 0 1 0 0 0 1 0" color-interpolation-filters="sRGB"/></filter><g/><clipPath id="194a0576b5"><path d="M 0 0.0195312 L 224.761719 0.0195312 L 224.761719 74.980469 L 0 74.980469 Z M 0 0.0195312 " clip-rule="nonzero"/></clipPath><mask id="6d1aa1a757"><g filter="url(#3c9ccfb887)"><rect x="-22.487999" width="269.855988" fill="#000000" y="-7.5" height="89.999996" fill-opacity="0.08"/></g></mask><clipPath id="1845ca04dc"><path d="M 199 59 L 224.761719 59 L 224.761719 74.980469 L 199 74.980469 Z M 199 59 " clip-rule="nonzero"/></clipPath><clipPath id="374dceb885"><path d="M 171 58 L 224.761719 58 L 224.761719 74.980469 L 171 74.980469 Z M 171 58 " clip-rule="nonzero"/></clipPath><clipPath id="7ef0c3322a"><path d="M 20 60 L 43 60 L 43 74.980469 L 20 74.980469 Z M 20 60 " clip-rule="nonzero"/></clipPath><clipPath id="047f70ee1f"><path d="M 7 0.0195312 L 28 0.0195312 L 28 10 L 7 10 Z M 7 0.0195312 " clip-rule="nonzero"/></clipPath><clipPath id="fe2fda9783"><path d="M 18 0.0195312 L 83 0.0195312 L 83 10 L 18 10 Z M 18 0.0195312 " clip-rule="nonzero"/></clipPath><clipPath id="d2f6033a8e"><path d="M 46 0.0195312 L 97 0.0195312 L 97 16 L 46 16 Z M 46 0.0195312 " clip-rule="nonzero"/></clipPath><clipPath id="aca26ef27d"><path d="M 204 0.0195312 L 224.761719 0.0195312 L 224.761719 62 L 204 62 Z M 204 0.0195312 " clip-rule="nonzero"/></clipPath><clipPath id="df200e905f"><path d="M 157 0.0195312 L 206 0.0195312 L 206 57 L 157 57 Z M 157 0.0195312 " clip-rule="nonzero"/></clipPath><clipPath id="0a227d2677"><path d="M 95 0.0195312 L 159 0.0195312 L 159 44 L 95 44 Z M 95 0.0195312 " clip-rule="nonzero"/></clipPath><clipPath id="292f6f0d0d"><path d="M 111 42 L 164 42 L 164 74.980469 L 111 74.980469 Z M 111 42 " clip-rule="nonzero"/></clipPath><clipPath id="bcfe52a982"><path d="M 162 29 L 206 29 L 206 74.980469 L 162 74.980469 Z M 162 29 " clip-rule="nonzero"/></clipPath><clipPath id="b67f627569"><path d="M 135 55 L 173 55 L 173 74.980469 L 135 74.980469 Z M 135 55 " clip-rule="nonzero"/></clipPath><clipPath id="3af8c3d889"><path d="M 62 66 L 137 66 L 137 74.980469 L 62 74.980469 Z M 62 66 " clip-rule="nonzero"/></clipPath><clipPath id="abd3ed681d"><path d="M 25 60 L 64 60 L 64 74.980469 L 25 74.980469 Z M 25 60 " clip-rule="nonzero"/></clipPath><clipPath id="d81b11de11"><path d="M 3 0.0195312 L 15 0.0195312 L 15 39 L 3 39 Z M 3 0.0195312 " clip-rule="nonzero"/></clipPath><clipPath id="41e2a23dd4"><path d="M 2 37 L 23 37 L 23 74.980469 L 2 74.980469 Z M 2 37 " clip-rule="nonzero"/></clipPath><clipPath id="7df45433d5"><path d="M 123 0.0195312 L 190 0.0195312 L 190 35 L 123 35 Z M 123 0.0195312 " clip-rule="nonzero"/></clipPath><clipPath id="8c5a753026"><path d="M 50 0.0195312 L 131 0.0195312 L 131 34 L 50 34 Z M 50 0.0195312 " clip-rule="nonzero"/></clipPath><clipPath id="1accb3a31e"><path d="M 13 0.0195312 L 52 0.0195312 L 52 33 L 13 33 Z M 13 0.0195312 " clip-rule="nonzero"/></clipPath><clipPath id="8458836396"><path d="M 13 0.0195312 L 52 0.0195312 L 52 51 L 13 51 Z M 13 0.0195312 " clip-rule="nonzero"/></clipPath><clipPath id="9a736704e5"><path d="M 21 31 L 52 31 L 52 74.980469 L 21 74.980469 Z M 21 31 " clip-rule="nonzero"/></clipPath><clipPath id="f606d85e5f"><path d="M 50 31 L 131 31 L 131 74.980469 L 50 74.980469 Z M 50 31 " clip-rule="nonzero"/></clipPath><clipPath id="6ce87c5672"><path d="M 129 0.0195312 L 201 0.0195312 L 201 69 L 129 69 Z M 129 0.0195312 " clip-rule="nonzero"/></clipPath><clipPath id="f1f1697f19"><path d="M 109 33 L 202 33 L 202 74.980469 L 109 74.980469 Z M 109 33 " clip-rule="nonzero"/></clipPath><clipPath id="2d3fe108ee"><path d="M 120 66 L 202 66 L 202 74.980469 L 120 74.980469 Z M 120 66 " clip-rule="nonzero"/></clipPath><clipPath id="f151222728"><path d="M 162 67 L 224.761719 67 L 224.761719 74.980469 L 162 74.980469 Z M 162 67 " clip-rule="nonzero"/></clipPath><clipPath id="72e0196bb3"><path d="M 199 48 L 224.761719 48 L 224.761719 74.980469 L 199 74.980469 Z M 199 48 " clip-rule="nonzero"/></clipPath><clipPath id="767ea4d5b3"><path d="M 188 0.0195312 L 224.761719 0.0195312 L 224.761719 69 L 188 69 Z M 188 0.0195312 " clip-rule="nonzero"/></clipPath><clipPath id="5ddbae1bd8"><path d="M 199 0.0195312 L 224.761719 0.0195312 L 224.761719 69 L 199 69 Z M 199 0.0195312 " clip-rule="nonzero"/></clipPath><clipPath id="04cd211b58"><path d="M 184 0.0195312 L 193 0.0195312 L 193 3 L 184 3 Z M 184 0.0195312 " clip-rule="nonzero"/></clipPath><clipPath id="cefe3bc6de"><rect x="0" width="225" y="0" height="75"/></clipPath><clipPath id="1553fe009e"><path d="M 93 4 L 98.855469 4 L 98.855469 12 L 93 12 Z M 93 4 " clip-rule="nonzero"/></clipPath><clipPath id="e43babe876"><rect x="0" width="99" y="0" height="15"/></clipPath><clipPath id="59c75686ee"><rect x="0" width="84" y="0" height="28"/></clipPath><clipPath id="3de9a29014"><path d="M 0.175781 0.601562 L 52.824219 0.601562 L 52.824219 53.253906 L 0.175781 53.253906 Z M 0.175781 0.601562 " clip-rule="nonzero"/></clipPath><clipPath id="2b4d1bde05"><path d="M 26.5 0.601562 C 11.960938 0.601562 0.175781 12.386719 0.175781 26.925781 C 0.175781 41.464844 11.960938 53.253906 26.5 53.253906 C 41.039062 53.253906 52.824219 41.464844 52.824219 26.925781 C 52.824219 12.386719 41.039062 0.601562 26.5 0.601562 Z M 26.5 0.601562 " clip-rule="nonzero"/></clipPath><clipPath id="a1d7f5036c"><path d="M 0.175781 0.601562 L 52.824219 0.601562 L 52.824219 53.253906 L 0.175781 53.253906 Z M 0.175781 0.601562 " clip-rule="nonzero"/></clipPath><clipPath id="7e65359938"><path d="M 26.5 0.601562 C 11.960938 0.601562 0.175781 12.386719 0.175781 26.925781 C 0.175781 41.464844 11.960938 53.253906 26.5 53.253906 C 41.039062 53.253906 52.824219 41.464844 52.824219 26.925781 C 52.824219 12.386719 41.039062 0.601562 26.5 0.601562 Z M 26.5 0.601562 " clip-rule="nonzero"/></clipPath><clipPath id="2077038b79"><rect x="0" width="53" y="0" height="54"/></clipPath><clipPath id="c642a54855"><path d="M 7.484375 9 L 26 9 L 26 45 L 7.484375 45 Z M 7.484375 9 " clip-rule="nonzero"/></clipPath><clipPath id="478f00b5e1"><path d="M 26.007812 5 L 41 5 L 41 48 L 26.007812 48 Z M 26.007812 5 " clip-rule="nonzero"/></clipPath><clipPath id="b7ebb42e7b"><rect x="0" width="54" y="0" height="54"/></clipPath></defs><g clip-path="url(#194a0576b5)"><path fill="#ffffff" d="M 0 0.0195312 L 224.878906 0.0195312 L 224.878906 74.980469 L 0 74.980469 Z M 0 0.0195312 " fill-opacity="1" fill-rule="nonzero"/><path fill="#fbfaf3" d="M 0 0.0195312 L 224.878906 0.0195312 L 224.878906 74.980469 L 0 74.980469 Z M 0 0.0195312 " fill-opacity="1" fill-rule="nonzero"/><g mask="url(#6d1aa1a757)"><g transform="matrix(1, 0, 0, 1, 0, -0.000000000000000847)"><g clip-path="url(#cefe3bc6de)"><g clip-path="url(#1845ca04dc)"><path fill="#c6c6c6" d="M 232.503906 60.824219 L 201.546875 129.4375 L 247.792969 76.484375 Z M 199.417969 132.75 L 232.324219 59.816406 L 248.582031 76.464844 L 248.402344 76.664062 L 199.417969 132.75 " fill-opacity="1" fill-rule="nonzero"/></g><g clip-path="url(#374dceb885)"><path fill="#c6c6c6" d="M 231.300781 62.085938 L 172.648438 131.554688 L 200.292969 130.808594 Z M 171.378906 132.167969 L 171.792969 131.675781 L 233.527344 58.554688 L 200.671875 131.378906 L 200.492188 131.382812 L 171.378906 132.167969 " fill-opacity="1" fill-rule="nonzero"/></g><g clip-path="url(#7ef0c3322a)"><path fill="#c6c6c6" d="M 20.753906 90.179688 L 41.410156 102.71875 L 25.917969 62.152344 Z M 42.546875 104.082031 L 20.113281 90.464844 L 25.722656 60.027344 L 42.546875 104.082031 " fill-opacity="1" fill-rule="nonzero"/></g><path fill="#c6c6c6" d="M 3.859375 37.964844 L 25.429688 60.269531 L 19.105469 9.335938 Z M 26.210938 61.910156 L 3.152344 38.0625 L 3.253906 37.878906 L 19.453125 7.457031 L 26.210938 61.910156 " fill-opacity="1" fill-rule="nonzero"/><g clip-path="url(#047f70ee1f)"><path fill="#c6c6c6" d="M 7.691406 -18.859375 L 19.144531 7.371094 L 26.535156 -40.289062 Z M 19.414062 9.421875 L 7.015625 -18.964844 L 7.136719 -19.105469 L 27.410156 -42.15625 L 19.414062 9.421875 " fill-opacity="1" fill-rule="nonzero"/></g><g clip-path="url(#fe2fda9783)"><path fill="#c6c6c6" d="M 27.222656 -40.941406 L 19.679688 7.699219 L 81.152344 -42.070312 Z M 18.878906 9.089844 L 26.726562 -41.507812 L 82.828125 -42.683594 L 18.878906 9.089844 " fill-opacity="1" fill-rule="nonzero"/></g><path fill="#c6c6c6" d="M 19.617188 8.757812 L 25.980469 60.03125 L 46.570312 14.375 Z M 25.660156 62.144531 L 18.945312 8.03125 L 47.390625 13.957031 L 47.246094 14.285156 L 25.660156 62.144531 " fill-opacity="1" fill-rule="nonzero"/><g clip-path="url(#d2f6033a8e)"><path fill="#c6c6c6" d="M 81.972656 -41.800781 L 47.882812 13.257812 L 95.457031 -16.707031 Z M 46.078125 15.074219 L 82.007812 -42.953125 L 96.222656 -16.503906 L 95.992188 -16.363281 L 46.078125 15.074219 " fill-opacity="1" fill-rule="nonzero"/></g><g clip-path="url(#aca26ef27d)"><path fill="#c6c6c6" d="M 205.445312 29.890625 L 232.152344 59.597656 L 235.539062 -26.890625 Z M 232.675781 61.042969 L 204.75 29.976562 L 204.84375 29.800781 L 236.214844 -29.398438 L 236.164062 -28.132812 L 232.675781 61.042969 " fill-opacity="1" fill-rule="nonzero"/></g><g clip-path="url(#df200e905f)"><path fill="#c6c6c6" d="M 158.5 -12.445312 L 163.035156 55.972656 L 204.625 29.890625 Z M 162.523438 56.976562 L 162.492188 56.496094 L 157.828125 -13.84375 L 205.574219 29.976562 L 205.253906 30.179688 L 162.523438 56.976562 " fill-opacity="1" fill-rule="nonzero"/></g><g clip-path="url(#0a227d2677)"><path fill="#c6c6c6" d="M 96.222656 -16.292969 L 112.128906 42.015625 L 157.578125 -12.886719 Z M 111.867188 43.238281 L 111.71875 42.703125 L 95.457031 -16.917969 L 95.855469 -16.894531 L 158.75 -13.398438 L 111.867188 43.238281 " fill-opacity="1" fill-rule="nonzero"/></g><path fill="#c6c6c6" d="M 47.4375 14.679688 L 63.3125 66.832031 L 111.320312 42.644531 Z M 62.960938 67.65625 L 62.863281 67.328125 L 46.519531 13.648438 L 112.675781 42.609375 L 62.960938 67.65625 " fill-opacity="1" fill-rule="nonzero"/><g clip-path="url(#292f6f0d0d)"><path fill="#c6c6c6" d="M 112.523438 43.070312 L 136.285156 93.59375 L 162.308594 56.644531 Z M 136.183594 94.738281 L 135.972656 94.292969 L 111.46875 42.1875 L 112.074219 42.351562 L 163.253906 56.304688 L 163.015625 56.640625 L 136.183594 94.738281 " fill-opacity="1" fill-rule="nonzero"/></g><g clip-path="url(#bcfe52a982)"><path fill="#c6c6c6" d="M 163.089844 56.621094 L 172.140625 130.535156 L 204.578125 30.601562 Z M 171.886719 133.191406 L 162.472656 56.328125 L 162.625 56.230469 L 205.621094 29.269531 L 205.375 30.023438 L 171.886719 133.191406 " fill-opacity="1" fill-rule="nonzero"/></g><g clip-path="url(#b67f627569)"><path fill="#c6c6c6" d="M 136.605469 94.140625 L 171.621094 131.03125 L 162.585938 57.25 Z M 172.40625 132.695312 L 135.863281 94.195312 L 135.996094 94.003906 L 162.972656 55.695312 L 163.066406 56.4375 L 172.40625 132.695312 " fill-opacity="1" fill-rule="nonzero"/></g><g clip-path="url(#3af8c3d889)"><path fill="#c6c6c6" d="M 63.902344 67.835938 L 111.207031 135.5625 L 135.808594 94.320312 Z M 111.246094 136.625 L 110.992188 136.257812 L 62.375 66.65625 L 136.660156 94.015625 L 136.480469 94.316406 L 111.246094 136.625 " fill-opacity="1" fill-rule="nonzero"/></g><g clip-path="url(#abd3ed681d)"><path fill="#c6c6c6" d="M 26.269531 61.457031 L 42.03125 102.734375 L 62.679688 67.460938 Z M 41.921875 104.066406 L 25.371094 60.722656 L 25.867188 60.808594 L 63.601562 67.027344 L 63.386719 67.390625 L 41.921875 104.066406 " fill-opacity="1" fill-rule="nonzero"/></g><path fill="#c6c6c6" d="M 48.71875 14.167969 C 48.71875 15.332031 47.769531 16.28125 46.601562 16.28125 C 45.433594 16.28125 44.488281 15.332031 44.488281 14.167969 C 44.488281 12.996094 45.433594 12.050781 46.601562 12.050781 C 47.769531 12.050781 48.71875 12.996094 48.71875 14.167969 " fill-opacity="1" fill-rule="nonzero"/><path fill="#c6c6c6" d="M 20.988281 8.554688 C 20.988281 9.722656 20.042969 10.671875 18.875 10.671875 C 17.707031 10.671875 16.761719 9.722656 16.761719 8.554688 C 16.761719 7.386719 17.707031 6.441406 18.875 6.441406 C 20.042969 6.441406 20.988281 7.386719 20.988281 8.554688 " fill-opacity="1" fill-rule="nonzero"/><path fill="#c6c6c6" d="M 65.554688 67.824219 C 65.554688 68.992188 64.605469 69.9375 63.4375 69.9375 C 62.269531 69.9375 61.324219 68.992188 61.324219 67.824219 C 61.324219 66.65625 62.269531 65.710938 63.4375 65.710938 C 64.605469 65.710938 65.554688 66.65625 65.554688 67.824219 " fill-opacity="1" fill-rule="nonzero"/><path fill="#c6c6c6" d="M 27.59375 61.03125 C 27.59375 62.195312 26.644531 63.144531 25.476562 63.144531 C 24.308594 63.144531 23.363281 62.195312 23.363281 61.03125 C 23.363281 59.859375 24.308594 58.914062 25.476562 58.914062 C 26.644531 58.914062 27.59375 59.859375 27.59375 61.03125 " fill-opacity="1" fill-rule="nonzero"/><path fill="#c6c6c6" d="M 165.277344 56.078125 C 165.277344 57.8125 163.871094 59.21875 162.136719 59.21875 C 160.402344 59.21875 158.996094 57.8125 158.996094 56.078125 C 158.996094 54.34375 160.402344 52.9375 162.136719 52.9375 C 163.871094 52.9375 165.277344 54.34375 165.277344 56.078125 " fill-opacity="1" fill-rule="nonzero"/><path fill="#c6c6c6" d="M 114.769531 43.207031 C 114.769531 44.941406 113.363281 46.347656 111.628906 46.347656 C 109.894531 46.347656 108.488281 44.941406 108.488281 43.207031 C 108.488281 41.472656 109.894531 40.066406 111.628906 40.066406 C 113.363281 40.066406 114.769531 41.472656 114.769531 43.207031 " fill-opacity="1" fill-rule="nonzero"/><path fill="#c6c6c6" d="M 207.527344 30.996094 C 207.527344 32.730469 206.121094 34.136719 204.386719 34.136719 C 202.652344 34.136719 201.246094 32.730469 201.246094 30.996094 C 201.246094 29.261719 202.652344 27.855469 204.386719 27.855469 C 206.121094 27.855469 207.527344 29.261719 207.527344 30.996094 " fill-opacity="1" fill-rule="nonzero"/><g clip-path="url(#d81b11de11)"><path fill="#706f6f" d="M 7.570312 -17.835938 L 4.011719 34.796875 L 13.972656 -5.035156 Z M 3.785156 38.082031 L 3.21875 37.992188 L 7.136719 -19.992188 L 14.585938 -5.101562 L 3.785156 38.082031 " fill-opacity="1" fill-rule="nonzero"/></g><g clip-path="url(#41e2a23dd4)"><path fill="#706f6f" d="M 4.023438 38.675781 L 20.207031 88.683594 L 21.679688 49.707031 Z M 20.660156 91.960938 L 2.988281 37.347656 L 22.269531 49.394531 L 22.261719 49.5625 L 20.660156 91.960938 " fill-opacity="1" fill-rule="nonzero"/></g><g clip-path="url(#7df45433d5)"><path fill="#706f6f" d="M 123.878906 -26.925781 L 130.699219 33.113281 L 188.292969 -1.167969 Z M 130.226562 34.066406 L 123.199219 -27.824219 L 189.59375 -1.273438 L 130.226562 34.066406 " fill-opacity="1" fill-rule="nonzero"/></g><g clip-path="url(#8c5a753026)"><path fill="#706f6f" d="M 51.996094 31.585938 L 130.140625 33.292969 L 123.3125 -26.816406 Z M 130.789062 33.886719 L 50.425781 32.128906 L 51.03125 31.632812 L 123.765625 -27.933594 L 123.824219 -27.40625 L 130.789062 33.886719 " fill-opacity="1" fill-rule="nonzero"/></g><g clip-path="url(#1accb3a31e)"><path fill="#706f6f" d="M 14.726562 -5.027344 L 50.90625 31.144531 L 49.398438 -29.140625 Z M 51.519531 32.570312 L 13.828125 -5.105469 L 49.949219 -30.226562 L 49.960938 -29.691406 L 51.519531 32.570312 " fill-opacity="1" fill-rule="nonzero"/></g><g clip-path="url(#8458836396)"><path fill="#706f6f" d="M 14.683594 -4.253906 L 22.199219 49.078125 L 50.746094 31.800781 Z M 21.75 50.023438 L 13.871094 -5.878906 L 51.679688 31.914062 L 21.75 50.023438 " fill-opacity="1" fill-rule="nonzero"/></g><g clip-path="url(#9a736704e5)"><path fill="#706f6f" d="M 22.34375 49.664062 L 45.625 99.96875 L 50.878906 32.394531 Z M 46.027344 102.214844 L 21.601562 49.4375 L 21.824219 49.304688 L 51.542969 31.320312 L 51.5 31.878906 L 46.027344 102.214844 " fill-opacity="1" fill-rule="nonzero"/></g><g clip-path="url(#f606d85e5f)"><path fill="#706f6f" d="M 51.90625 32.160156 L 109.570312 92.09375 L 130.058594 33.867188 Z M 109.804688 93.167969 L 50.519531 31.554688 L 51.21875 31.570312 L 130.871094 33.308594 L 130.738281 33.683594 L 109.804688 93.167969 " fill-opacity="1" fill-rule="nonzero"/></g><g clip-path="url(#6ce87c5672)"><path fill="#706f6f" d="M 131.066406 33.566406 L 200.105469 67.507812 L 188.726562 -0.757812 Z M 200.859375 68.519531 L 200.355469 68.273438 L 129.859375 33.613281 L 130.316406 33.339844 L 189.15625 -1.683594 L 189.226562 -1.269531 L 200.859375 68.519531 " fill-opacity="1" fill-rule="nonzero"/></g><g clip-path="url(#f1f1697f19)"><path fill="#706f6f" d="M 130.628906 33.992188 L 110.144531 92.207031 L 199.667969 67.933594 Z M 109.234375 93.050781 L 130.300781 33.1875 L 130.589844 33.328125 L 201.296875 68.089844 L 109.234375 93.050781 " fill-opacity="1" fill-rule="nonzero"/></g><g clip-path="url(#2d3fe108ee)"><path fill="#706f6f" d="M 199.183594 69.578125 L 122.320312 138.957031 L 163.363281 127.769531 Z M 120.136719 140.152344 L 121.035156 139.339844 L 201.785156 66.449219 L 163.734375 128.265625 L 163.625 128.292969 L 120.136719 140.152344 " fill-opacity="1" fill-rule="nonzero"/></g><g clip-path="url(#f151222728)"><path fill="#706f6f" d="M 200.585938 68.398438 L 164.578125 126.894531 L 225.339844 81.898438 Z M 162.519531 129.136719 L 163.304688 127.863281 L 200.382812 67.628906 L 200.621094 67.757812 L 226.40625 81.824219 L 226.046875 82.09375 L 162.519531 129.136719 " fill-opacity="1" fill-rule="nonzero"/></g><g clip-path="url(#72e0196bb3)"><path fill="#706f6f" d="M 201.160156 68.054688 L 225.777344 81.476562 L 245.917969 50.152344 Z M 225.972656 82.242188 L 199.804688 67.972656 L 200.375 67.746094 L 247.378906 48.949219 L 225.972656 82.242188 " fill-opacity="1" fill-rule="nonzero"/></g><g clip-path="url(#767ea4d5b3)"><path fill="#706f6f" d="M 189.269531 -1 L 200.625 67.113281 L 242.257812 -13.109375 Z M 200.339844 68.914062 L 188.613281 -1.441406 L 188.875 -1.503906 L 243.34375 -13.949219 L 243.058594 -13.394531 L 200.339844 68.914062 " fill-opacity="1" fill-rule="nonzero"/></g><g clip-path="url(#5ddbae1bd8)"><path fill="#706f6f" d="M 242.578125 -12.46875 L 201.097656 67.457031 L 246.347656 49.359375 Z M 199.867188 68.570312 L 243.027344 -14.585938 L 246.949219 49.742188 L 246.757812 49.820312 L 199.867188 68.570312 " fill-opacity="1" fill-rule="nonzero"/></g><g clip-path="url(#04cd211b58)"><path fill="#706f6f" d="M 192.390625 -1.785156 C 192.390625 0.402344 190.621094 2.175781 188.433594 2.175781 C 186.246094 2.175781 184.472656 0.402344 184.472656 -1.785156 C 184.472656 -3.972656 186.246094 -5.746094 188.433594 -5.746094 C 190.621094 -5.746094 192.390625 -3.972656 192.390625 -1.785156 " fill-opacity="1" fill-rule="nonzero"/></g><path fill="#706f6f" d="M 6.28125 38.699219 C 6.28125 40.433594 4.875 41.839844 3.140625 41.839844 C 1.40625 41.839844 0 40.433594 0 38.699219 C 0 36.964844 1.40625 35.558594 3.140625 35.558594 C 4.875 35.558594 6.28125 36.964844 6.28125 38.699219 " fill-opacity="1" fill-rule="nonzero"/><path fill="#706f6f" d="M 25.148438 48.820312 C 25.148438 51.003906 23.375 52.777344 21.1875 52.777344 C 18.996094 52.777344 17.222656 51.003906 17.222656 48.820312 C 17.222656 46.628906 18.996094 44.859375 21.1875 44.859375 C 23.375 44.859375 25.148438 46.628906 25.148438 48.820312 " fill-opacity="1" fill-rule="nonzero"/><path fill="#706f6f" d="M 135.496094 32.976562 C 135.496094 36.070312 132.992188 38.578125 129.898438 38.578125 C 126.800781 38.578125 124.292969 36.070312 124.292969 32.976562 C 124.292969 29.882812 126.800781 27.375 129.898438 27.375 C 132.992188 27.375 135.496094 29.882812 135.496094 32.976562 " fill-opacity="1" fill-rule="nonzero"/><path fill="#706f6f" d="M 205.917969 67.738281 C 205.917969 70.832031 203.410156 73.339844 200.316406 73.339844 C 197.21875 73.339844 194.714844 70.832031 194.714844 67.738281 C 194.714844 64.644531 197.21875 62.136719 200.316406 62.136719 C 203.410156 62.136719 205.917969 64.644531 205.917969 67.738281 " fill-opacity="1" fill-rule="nonzero"/><path fill="#706f6f" d="M 56.273438 32.097656 C 56.273438 35.191406 53.765625 37.699219 50.675781 37.699219 C 47.578125 37.699219 45.074219 35.191406 45.074219 32.097656 C 45.074219 29.003906 47.578125 26.496094 50.675781 26.496094 C 53.765625 26.496094 56.273438 29.003906 56.273438 32.097656 " fill-opacity="1" fill-rule="nonzero"/></g></g></g></g><g transform="matrix(1, 0, 0, 1, 94, 44)"><g clip-path="url(#e43babe876)"><g fill="#132139" fill-opacity="1"><g transform="translate(0.481443, 11.045586)"><g><path d="M 4.921875 0.203125 C 4.429688 0.203125 3.960938 0.128906 3.515625 -0.015625 C 3.078125 -0.160156 2.675781 -0.367188 2.3125 -0.640625 C 1.945312 -0.910156 1.632812 -1.226562 1.375 -1.59375 C 1.113281 -1.96875 0.910156 -2.378906 0.765625 -2.828125 C 0.617188 -3.273438 0.546875 -3.753906 0.546875 -4.265625 C 0.546875 -4.773438 0.617188 -5.253906 0.765625 -5.703125 C 0.910156 -6.160156 1.113281 -6.578125 1.375 -6.953125 C 1.644531 -7.328125 1.960938 -7.644531 2.328125 -7.90625 C 2.691406 -8.175781 3.097656 -8.382812 3.546875 -8.53125 C 3.992188 -8.675781 4.460938 -8.75 4.953125 -8.75 C 5.210938 -8.75 5.484375 -8.71875 5.765625 -8.65625 C 6.054688 -8.59375 6.332031 -8.503906 6.59375 -8.390625 C 6.863281 -8.285156 7.101562 -8.160156 7.3125 -8.015625 L 7.3125 -6.859375 C 7.125 -7.003906 6.898438 -7.140625 6.640625 -7.265625 C 6.390625 -7.398438 6.117188 -7.503906 5.828125 -7.578125 C 5.535156 -7.648438 5.253906 -7.6875 4.984375 -7.6875 C 4.515625 -7.6875 4.082031 -7.597656 3.6875 -7.421875 C 3.289062 -7.253906 2.941406 -7.015625 2.640625 -6.703125 C 2.347656 -6.398438 2.117188 -6.039062 1.953125 -5.625 C 1.785156 -5.207031 1.703125 -4.753906 1.703125 -4.265625 C 1.703125 -3.785156 1.785156 -3.335938 1.953125 -2.921875 C 2.117188 -2.503906 2.347656 -2.140625 2.640625 -1.828125 C 2.941406 -1.523438 3.289062 -1.285156 3.6875 -1.109375 C 4.09375 -0.941406 4.523438 -0.859375 4.984375 -0.859375 C 5.253906 -0.859375 5.535156 -0.894531 5.828125 -0.96875 C 6.128906 -1.050781 6.410156 -1.160156 6.671875 -1.296875 C 6.941406 -1.429688 7.175781 -1.585938 7.375 -1.765625 L 7.34375 -0.546875 C 7.132812 -0.398438 6.890625 -0.269531 6.609375 -0.15625 C 6.335938 -0.0390625 6.054688 0.046875 5.765625 0.109375 C 5.472656 0.171875 5.191406 0.203125 4.921875 0.203125 Z M 4.921875 0.203125 "/></g></g></g><g fill="#132139" fill-opacity="1"><g transform="translate(8.46905, 11.045586)"><g><path d="M 3.875 0.21875 C 3.394531 0.21875 2.945312 0.132812 2.53125 -0.03125 C 2.125 -0.207031 1.769531 -0.445312 1.46875 -0.75 C 1.164062 -1.050781 0.929688 -1.410156 0.765625 -1.828125 C 0.597656 -2.242188 0.515625 -2.695312 0.515625 -3.1875 C 0.515625 -3.675781 0.597656 -4.125 0.765625 -4.53125 C 0.929688 -4.945312 1.164062 -5.304688 1.46875 -5.609375 C 1.78125 -5.921875 2.140625 -6.160156 2.546875 -6.328125 C 2.953125 -6.503906 3.398438 -6.59375 3.890625 -6.59375 C 4.367188 -6.59375 4.8125 -6.503906 5.21875 -6.328125 C 5.632812 -6.160156 5.992188 -5.921875 6.296875 -5.609375 C 6.597656 -5.304688 6.832031 -4.945312 7 -4.53125 C 7.175781 -4.125 7.265625 -3.675781 7.265625 -3.1875 C 7.265625 -2.695312 7.175781 -2.242188 7 -1.828125 C 6.832031 -1.410156 6.597656 -1.050781 6.296875 -0.75 C 5.992188 -0.445312 5.632812 -0.207031 5.21875 -0.03125 C 4.8125 0.132812 4.363281 0.21875 3.875 0.21875 Z M 3.890625 -0.71875 C 4.222656 -0.71875 4.53125 -0.773438 4.8125 -0.890625 C 5.09375 -1.015625 5.335938 -1.1875 5.546875 -1.40625 C 5.753906 -1.632812 5.914062 -1.898438 6.03125 -2.203125 C 6.15625 -2.503906 6.21875 -2.832031 6.21875 -3.1875 C 6.21875 -3.539062 6.15625 -3.863281 6.03125 -4.15625 C 5.914062 -4.457031 5.753906 -4.71875 5.546875 -4.9375 C 5.335938 -5.164062 5.09375 -5.34375 4.8125 -5.46875 C 4.53125 -5.59375 4.222656 -5.65625 3.890625 -5.65625 C 3.566406 -5.65625 3.257812 -5.59375 2.96875 -5.46875 C 2.6875 -5.34375 2.4375 -5.164062 2.21875 -4.9375 C 2.007812 -4.71875 1.847656 -4.457031 1.734375 -4.15625 C 1.617188 -3.863281 1.5625 -3.539062 1.5625 -3.1875 C 1.5625 -2.832031 1.617188 -2.503906 1.734375 -2.203125 C 1.859375 -1.898438 2.023438 -1.632812 2.234375 -1.40625 C 2.441406 -1.1875 2.6875 -1.015625 2.96875 -0.890625 C 3.257812 -0.773438 3.566406 -0.71875 3.890625 -0.71875 Z M 3.890625 -0.71875 "/></g></g></g><g fill="#132139" fill-opacity="1"><g transform="translate(16.249695, 11.045586)"><g><path d="M 8.046875 -6.59375 C 8.429688 -6.59375 8.75 -6.535156 9 -6.421875 C 9.257812 -6.304688 9.46875 -6.148438 9.625 -5.953125 C 9.78125 -5.765625 9.898438 -5.550781 9.984375 -5.3125 C 10.066406 -5.070312 10.117188 -4.828125 10.140625 -4.578125 C 10.171875 -4.328125 10.1875 -4.085938 10.1875 -3.859375 L 10.1875 0 L 9.109375 0 L 9.109375 -3.875 C 9.109375 -4.101562 9.09375 -4.320312 9.0625 -4.53125 C 9.03125 -4.738281 8.96875 -4.925781 8.875 -5.09375 C 8.78125 -5.269531 8.644531 -5.40625 8.46875 -5.5 C 8.289062 -5.601562 8.054688 -5.65625 7.765625 -5.65625 C 7.472656 -5.644531 7.175781 -5.546875 6.875 -5.359375 C 6.570312 -5.171875 6.3125 -4.914062 6.09375 -4.59375 C 6.113281 -4.46875 6.125 -4.34375 6.125 -4.21875 C 6.125 -4.101562 6.125 -3.984375 6.125 -3.859375 L 6.125 0 L 5.078125 0 L 5.078125 -3.875 C 5.078125 -4.257812 5.035156 -4.582031 4.953125 -4.84375 C 4.867188 -5.113281 4.726562 -5.316406 4.53125 -5.453125 C 4.34375 -5.585938 4.085938 -5.65625 3.765625 -5.65625 C 3.460938 -5.644531 3.160156 -5.539062 2.859375 -5.34375 C 2.566406 -5.15625 2.304688 -4.894531 2.078125 -4.5625 L 2.09375 0 L 1 0 L 1 -6.375 L 1.9375 -6.375 L 2.0625 -5.578125 C 2.351562 -5.890625 2.664062 -6.132812 3 -6.3125 C 3.34375 -6.5 3.691406 -6.59375 4.046875 -6.59375 C 4.398438 -6.59375 4.703125 -6.535156 4.953125 -6.421875 C 5.203125 -6.316406 5.398438 -6.175781 5.546875 -6 C 5.703125 -5.820312 5.820312 -5.625 5.90625 -5.40625 C 6.101562 -5.632812 6.316406 -5.835938 6.546875 -6.015625 C 6.785156 -6.203125 7.03125 -6.34375 7.28125 -6.4375 C 7.539062 -6.539062 7.796875 -6.59375 8.046875 -6.59375 Z M 8.046875 -6.59375 "/></g></g></g><g fill="#132139" fill-opacity="1"><g transform="translate(27.386477, 11.045586)"><g><path d="M 8.046875 -6.59375 C 8.429688 -6.59375 8.75 -6.535156 9 -6.421875 C 9.257812 -6.304688 9.46875 -6.148438 9.625 -5.953125 C 9.78125 -5.765625 9.898438 -5.550781 9.984375 -5.3125 C 10.066406 -5.070312 10.117188 -4.828125 10.140625 -4.578125 C 10.171875 -4.328125 10.1875 -4.085938 10.1875 -3.859375 L 10.1875 0 L 9.109375 0 L 9.109375 -3.875 C 9.109375 -4.101562 9.09375 -4.320312 9.0625 -4.53125 C 9.03125 -4.738281 8.96875 -4.925781 8.875 -5.09375 C 8.78125 -5.269531 8.644531 -5.40625 8.46875 -5.5 C 8.289062 -5.601562 8.054688 -5.65625 7.765625 -5.65625 C 7.472656 -5.644531 7.175781 -5.546875 6.875 -5.359375 C 6.570312 -5.171875 6.3125 -4.914062 6.09375 -4.59375 C 6.113281 -4.46875 6.125 -4.34375 6.125 -4.21875 C 6.125 -4.101562 6.125 -3.984375 6.125 -3.859375 L 6.125 0 L 5.078125 0 L 5.078125 -3.875 C 5.078125 -4.257812 5.035156 -4.582031 4.953125 -4.84375 C 4.867188 -5.113281 4.726562 -5.316406 4.53125 -5.453125 C 4.34375 -5.585938 4.085938 -5.65625 3.765625 -5.65625 C 3.460938 -5.644531 3.160156 -5.539062 2.859375 -5.34375 C 2.566406 -5.15625 2.304688 -4.894531 2.078125 -4.5625 L 2.09375 0 L 1 0 L 1 -6.375 L 1.9375 -6.375 L 2.0625 -5.578125 C 2.351562 -5.890625 2.664062 -6.132812 3 -6.3125 C 3.34375 -6.5 3.691406 -6.59375 4.046875 -6.59375 C 4.398438 -6.59375 4.703125 -6.535156 4.953125 -6.421875 C 5.203125 -6.316406 5.398438 -6.175781 5.546875 -6 C 5.703125 -5.820312 5.820312 -5.625 5.90625 -5.40625 C 6.101562 -5.632812 6.316406 -5.835938 6.546875 -6.015625 C 6.785156 -6.203125 7.03125 -6.34375 7.28125 -6.4375 C 7.539062 -6.539062 7.796875 -6.59375 8.046875 -6.59375 Z M 8.046875 -6.59375 "/></g></g></g><g fill="#132139" fill-opacity="1"><g transform="translate(38.52326, 11.045586)"><g><path d="M 5.375 -6.375 L 6.46875 -6.375 L 6.46875 0 L 5.53125 0 L 5.390625 -0.859375 C 5.203125 -0.648438 4.988281 -0.460938 4.75 -0.296875 C 4.507812 -0.140625 4.257812 -0.015625 4 0.078125 C 3.75 0.171875 3.492188 0.21875 3.234375 0.21875 C 2.742188 0.21875 2.328125 0.117188 1.984375 -0.078125 C 1.640625 -0.285156 1.378906 -0.601562 1.203125 -1.03125 C 1.023438 -1.457031 0.9375 -2.003906 0.9375 -2.671875 L 0.9375 -6.375 L 2.03125 -6.375 L 2.03125 -2.671875 C 2.03125 -2.046875 2.144531 -1.5625 2.375 -1.21875 C 2.613281 -0.882812 3.003906 -0.71875 3.546875 -0.71875 C 3.765625 -0.71875 3.984375 -0.765625 4.203125 -0.859375 C 4.429688 -0.953125 4.644531 -1.082031 4.84375 -1.25 C 5.050781 -1.414062 5.234375 -1.609375 5.390625 -1.828125 Z M 5.375 -6.375 "/></g></g></g><g fill="#132139" fill-opacity="1"><g transform="translate(45.990666, 11.045586)"><g><path d="M 4.234375 -6.59375 C 4.722656 -6.59375 5.132812 -6.488281 5.46875 -6.28125 C 5.8125 -6.082031 6.070312 -5.769531 6.25 -5.34375 C 6.425781 -4.914062 6.515625 -4.367188 6.515625 -3.703125 L 6.515625 0 L 5.4375 0 L 5.4375 -3.703125 C 5.4375 -4.328125 5.316406 -4.804688 5.078125 -5.140625 C 4.847656 -5.484375 4.460938 -5.65625 3.921875 -5.65625 C 3.703125 -5.65625 3.476562 -5.609375 3.25 -5.515625 C 3.03125 -5.421875 2.816406 -5.289062 2.609375 -5.125 C 2.410156 -4.957031 2.234375 -4.765625 2.078125 -4.546875 L 2.09375 0 L 1 0 L 1 -6.375 L 1.9375 -6.375 L 2.078125 -5.53125 C 2.265625 -5.726562 2.472656 -5.90625 2.703125 -6.0625 C 2.941406 -6.226562 3.191406 -6.359375 3.453125 -6.453125 C 3.722656 -6.546875 3.984375 -6.59375 4.234375 -6.59375 Z M 4.234375 -6.59375 "/></g></g></g><g fill="#132139" fill-opacity="1"><g transform="translate(53.458071, 11.045586)"><g><path d="M 1.53125 -7.453125 C 1.320312 -7.453125 1.144531 -7.515625 1 -7.640625 C 0.851562 -7.773438 0.78125 -7.941406 0.78125 -8.140625 C 0.78125 -8.359375 0.851562 -8.53125 1 -8.65625 C 1.144531 -8.789062 1.320312 -8.859375 1.53125 -8.859375 C 1.757812 -8.859375 1.941406 -8.789062 2.078125 -8.65625 C 2.222656 -8.53125 2.296875 -8.359375 2.296875 -8.140625 C 2.296875 -7.941406 2.222656 -7.773438 2.078125 -7.640625 C 1.941406 -7.515625 1.757812 -7.453125 1.53125 -7.453125 Z M 1 0 L 1 -6.375 L 2.078125 -6.375 L 2.078125 0 Z M 1 0 "/></g></g></g><g fill="#132139" fill-opacity="1"><g transform="translate(56.540124, 11.045586)"><g><path d="M 3.828125 0.21875 C 3.359375 0.21875 2.921875 0.132812 2.515625 -0.03125 C 2.109375 -0.207031 1.753906 -0.445312 1.453125 -0.75 C 1.160156 -1.050781 0.929688 -1.410156 0.765625 -1.828125 C 0.597656 -2.242188 0.515625 -2.695312 0.515625 -3.1875 C 0.515625 -3.675781 0.597656 -4.125 0.765625 -4.53125 C 0.929688 -4.945312 1.164062 -5.304688 1.46875 -5.609375 C 1.769531 -5.921875 2.117188 -6.160156 2.515625 -6.328125 C 2.921875 -6.503906 3.363281 -6.59375 3.84375 -6.59375 C 4.21875 -6.59375 4.554688 -6.535156 4.859375 -6.421875 C 5.160156 -6.316406 5.4375 -6.171875 5.6875 -5.984375 L 5.75 -4.984375 C 5.519531 -5.203125 5.242188 -5.375 4.921875 -5.5 C 4.597656 -5.625 4.265625 -5.6875 3.921875 -5.6875 C 3.578125 -5.6875 3.265625 -5.617188 2.984375 -5.484375 C 2.703125 -5.359375 2.453125 -5.179688 2.234375 -4.953125 C 2.015625 -4.734375 1.847656 -4.472656 1.734375 -4.171875 C 1.617188 -3.867188 1.5625 -3.539062 1.5625 -3.1875 C 1.5625 -2.820312 1.617188 -2.488281 1.734375 -2.1875 C 1.847656 -1.882812 2.015625 -1.617188 2.234375 -1.390625 C 2.453125 -1.171875 2.703125 -1 2.984375 -0.875 C 3.273438 -0.75 3.585938 -0.6875 3.921875 -0.6875 C 4.265625 -0.6875 4.59375 -0.75 4.90625 -0.875 C 5.226562 -1 5.503906 -1.171875 5.734375 -1.390625 L 5.71875 -0.375 C 5.46875 -0.195312 5.1875 -0.0546875 4.875 0.046875 C 4.570312 0.160156 4.222656 0.21875 3.828125 0.21875 Z M 3.828125 0.21875 "/></g></g></g><g fill="#132139" fill-opacity="1"><g transform="translate(62.950347, 11.045586)"><g><path d="M 3.28125 -6.59375 C 3.769531 -6.59375 4.175781 -6.523438 4.5 -6.390625 C 4.832031 -6.265625 5.097656 -6.085938 5.296875 -5.859375 C 5.503906 -5.628906 5.65625 -5.359375 5.75 -5.046875 C 5.84375 -4.734375 5.890625 -4.390625 5.890625 -4.015625 L 5.875 0 L 4.953125 0 L 4.8125 -0.8125 C 4.539062 -0.507812 4.21875 -0.257812 3.84375 -0.0625 C 3.46875 0.125 3.078125 0.21875 2.671875 0.21875 C 2.253906 0.21875 1.894531 0.144531 1.59375 0 C 1.289062 -0.15625 1.054688 -0.375 0.890625 -0.65625 C 0.722656 -0.9375 0.640625 -1.28125 0.640625 -1.6875 C 0.640625 -2.113281 0.738281 -2.472656 0.9375 -2.765625 C 1.144531 -3.054688 1.425781 -3.28125 1.78125 -3.4375 C 2.132812 -3.59375 2.539062 -3.671875 3 -3.671875 C 3.28125 -3.671875 3.578125 -3.644531 3.890625 -3.59375 C 4.203125 -3.550781 4.503906 -3.5 4.796875 -3.4375 L 4.796875 -3.984375 C 4.796875 -4.179688 4.773438 -4.375 4.734375 -4.5625 C 4.703125 -4.757812 4.628906 -4.941406 4.515625 -5.109375 C 4.398438 -5.273438 4.234375 -5.40625 4.015625 -5.5 C 3.796875 -5.601562 3.5 -5.65625 3.125 -5.65625 C 2.71875 -5.65625 2.328125 -5.59375 1.953125 -5.46875 C 1.578125 -5.34375 1.207031 -5.171875 0.84375 -4.953125 L 0.9375 -5.9375 C 1.289062 -6.144531 1.664062 -6.304688 2.0625 -6.421875 C 2.457031 -6.535156 2.863281 -6.59375 3.28125 -6.59375 Z M 2.96875 -0.71875 C 3.332031 -0.71875 3.671875 -0.804688 3.984375 -0.984375 C 4.296875 -1.171875 4.566406 -1.421875 4.796875 -1.734375 L 4.796875 -2.59375 C 4.554688 -2.644531 4.304688 -2.691406 4.046875 -2.734375 C 3.785156 -2.785156 3.503906 -2.8125 3.203125 -2.8125 C 2.898438 -2.8125 2.632812 -2.78125 2.40625 -2.71875 C 2.175781 -2.664062 2 -2.566406 1.875 -2.421875 C 1.75 -2.273438 1.6875 -2.0625 1.6875 -1.78125 C 1.6875 -1.394531 1.796875 -1.117188 2.015625 -0.953125 C 2.234375 -0.796875 2.550781 -0.71875 2.96875 -0.71875 Z M 2.96875 -0.71875 "/></g></g></g><g fill="#132139" fill-opacity="1"><g transform="translate(69.780086, 11.045586)"><g><path d="M 0.171875 -5.59375 L 2.34375 -8.15625 L 2.46875 -8.15625 L 2.46875 -6.375 L 4.515625 -6.375 L 4.515625 -5.421875 L 2.453125 -5.421875 L 2.453125 -2.125 C 2.453125 -1.71875 2.550781 -1.394531 2.75 -1.15625 C 2.945312 -0.914062 3.222656 -0.796875 3.578125 -0.796875 C 3.785156 -0.796875 3.976562 -0.8125 4.15625 -0.84375 C 4.34375 -0.882812 4.5 -0.925781 4.625 -0.96875 C 4.757812 -1.019531 4.863281 -1.066406 4.9375 -1.109375 L 4.9375 -0.125 C 4.832031 -0.0820312 4.703125 -0.0351562 4.546875 0.015625 C 4.398438 0.0664062 4.234375 0.113281 4.046875 0.15625 C 3.859375 0.195312 3.660156 0.21875 3.453125 0.21875 C 2.929688 0.21875 2.519531 0.117188 2.21875 -0.078125 C 1.914062 -0.285156 1.695312 -0.566406 1.5625 -0.921875 C 1.425781 -1.285156 1.359375 -1.707031 1.359375 -2.1875 L 1.359375 -5.421875 L 0.171875 -5.421875 Z M 0.171875 -5.59375 "/></g></g></g><g fill="#132139" fill-opacity="1"><g transform="translate(74.859041, 11.045586)"><g><path d="M 1.53125 -7.453125 C 1.320312 -7.453125 1.144531 -7.515625 1 -7.640625 C 0.851562 -7.773438 0.78125 -7.941406 0.78125 -8.140625 C 0.78125 -8.359375 0.851562 -8.53125 1 -8.65625 C 1.144531 -8.789062 1.320312 -8.859375 1.53125 -8.859375 C 1.757812 -8.859375 1.941406 -8.789062 2.078125 -8.65625 C 2.222656 -8.53125 2.296875 -8.359375 2.296875 -8.140625 C 2.296875 -7.941406 2.222656 -7.773438 2.078125 -7.640625 C 1.941406 -7.515625 1.757812 -7.453125 1.53125 -7.453125 Z M 1 0 L 1 -6.375 L 2.078125 -6.375 L 2.078125 0 Z M 1 0 "/></g></g></g><g fill="#132139" fill-opacity="1"><g transform="translate(77.941094, 11.045586)"><g><path d="M 3.875 0.21875 C 3.394531 0.21875 2.945312 0.132812 2.53125 -0.03125 C 2.125 -0.207031 1.769531 -0.445312 1.46875 -0.75 C 1.164062 -1.050781 0.929688 -1.410156 0.765625 -1.828125 C 0.597656 -2.242188 0.515625 -2.695312 0.515625 -3.1875 C 0.515625 -3.675781 0.597656 -4.125 0.765625 -4.53125 C 0.929688 -4.945312 1.164062 -5.304688 1.46875 -5.609375 C 1.78125 -5.921875 2.140625 -6.160156 2.546875 -6.328125 C 2.953125 -6.503906 3.398438 -6.59375 3.890625 -6.59375 C 4.367188 -6.59375 4.8125 -6.503906 5.21875 -6.328125 C 5.632812 -6.160156 5.992188 -5.921875 6.296875 -5.609375 C 6.597656 -5.304688 6.832031 -4.945312 7 -4.53125 C 7.175781 -4.125 7.265625 -3.675781 7.265625 -3.1875 C 7.265625 -2.695312 7.175781 -2.242188 7 -1.828125 C 6.832031 -1.410156 6.597656 -1.050781 6.296875 -0.75 C 5.992188 -0.445312 5.632812 -0.207031 5.21875 -0.03125 C 4.8125 0.132812 4.363281 0.21875 3.875 0.21875 Z M 3.890625 -0.71875 C 4.222656 -0.71875 4.53125 -0.773438 4.8125 -0.890625 C 5.09375 -1.015625 5.335938 -1.1875 5.546875 -1.40625 C 5.753906 -1.632812 5.914062 -1.898438 6.03125 -2.203125 C 6.15625 -2.503906 6.21875 -2.832031 6.21875 -3.1875 C 6.21875 -3.539062 6.15625 -3.863281 6.03125 -4.15625 C 5.914062 -4.457031 5.753906 -4.71875 5.546875 -4.9375 C 5.335938 -5.164062 5.09375 -5.34375 4.8125 -5.46875 C 4.53125 -5.59375 4.222656 -5.65625 3.890625 -5.65625 C 3.566406 -5.65625 3.257812 -5.59375 2.96875 -5.46875 C 2.6875 -5.34375 2.4375 -5.164062 2.21875 -4.9375 C 2.007812 -4.71875 1.847656 -4.457031 1.734375 -4.15625 C 1.617188 -3.863281 1.5625 -3.539062 1.5625 -3.1875 C 1.5625 -2.832031 1.617188 -2.503906 1.734375 -2.203125 C 1.859375 -1.898438 2.023438 -1.632812 2.234375 -1.40625 C 2.441406 -1.1875 2.6875 -1.015625 2.96875 -0.890625 C 3.257812 -0.773438 3.566406 -0.71875 3.890625 -0.71875 Z M 3.890625 -0.71875 "/></g></g></g><g fill="#132139" fill-opacity="1"><g transform="translate(85.721739, 11.045586)"><g><path d="M 4.234375 -6.59375 C 4.722656 -6.59375 5.132812 -6.488281 5.46875 -6.28125 C 5.8125 -6.082031 6.070312 -5.769531 6.25 -5.34375 C 6.425781 -4.914062 6.515625 -4.367188 6.515625 -3.703125 L 6.515625 0 L 5.4375 0 L 5.4375 -3.703125 C 5.4375 -4.328125 5.316406 -4.804688 5.078125 -5.140625 C 4.847656 -5.484375 4.460938 -5.65625 3.921875 -5.65625 C 3.703125 -5.65625 3.476562 -5.609375 3.25 -5.515625 C 3.03125 -5.421875 2.816406 -5.289062 2.609375 -5.125 C 2.410156 -4.957031 2.234375 -4.765625 2.078125 -4.546875 L 2.09375 0 L 1 0 L 1 -6.375 L 1.9375 -6.375 L 2.078125 -5.53125 C 2.265625 -5.726562 2.472656 -5.90625 2.703125 -6.0625 C 2.941406 -6.226562 3.191406 -6.359375 3.453125 -6.453125 C 3.722656 -6.546875 3.984375 -6.59375 4.234375 -6.59375 Z M 4.234375 -6.59375 "/></g></g></g><g clip-path="url(#1553fe009e)"><g fill="#132139" fill-opacity="1"><g transform="translate(93.189145, 11.045586)"><g><path d="M 2.625 0.203125 C 2.375 0.203125 2.125 0.179688 1.875 0.140625 C 1.632812 0.0976562 1.40625 0.0390625 1.1875 -0.03125 C 0.96875 -0.101562 0.78125 -0.1875 0.625 -0.28125 L 0.59375 -1.390625 C 0.769531 -1.265625 0.972656 -1.15625 1.203125 -1.0625 C 1.429688 -0.976562 1.664062 -0.910156 1.90625 -0.859375 C 2.144531 -0.816406 2.363281 -0.796875 2.5625 -0.796875 C 2.9375 -0.796875 3.21875 -0.867188 3.40625 -1.015625 C 3.601562 -1.171875 3.703125 -1.410156 3.703125 -1.734375 C 3.703125 -1.859375 3.679688 -1.960938 3.640625 -2.046875 C 3.597656 -2.140625 3.53125 -2.222656 3.4375 -2.296875 C 3.34375 -2.367188 3.210938 -2.441406 3.046875 -2.515625 C 2.878906 -2.597656 2.664062 -2.695312 2.40625 -2.8125 C 1.851562 -3.0625 1.441406 -3.351562 1.171875 -3.6875 C 0.898438 -4.03125 0.765625 -4.425781 0.765625 -4.875 C 0.765625 -5.21875 0.84375 -5.515625 1 -5.765625 C 1.15625 -6.023438 1.378906 -6.226562 1.671875 -6.375 C 1.960938 -6.519531 2.296875 -6.59375 2.671875 -6.59375 C 2.921875 -6.59375 3.203125 -6.554688 3.515625 -6.484375 C 3.828125 -6.421875 4.117188 -6.328125 4.390625 -6.203125 L 4.421875 -5.125 C 4.253906 -5.207031 4.070312 -5.285156 3.875 -5.359375 C 3.675781 -5.429688 3.484375 -5.488281 3.296875 -5.53125 C 3.109375 -5.570312 2.941406 -5.59375 2.796875 -5.59375 C 2.515625 -5.59375 2.28125 -5.53125 2.09375 -5.40625 C 1.90625 -5.289062 1.8125 -5.101562 1.8125 -4.84375 C 1.8125 -4.664062 1.84375 -4.515625 1.90625 -4.390625 C 1.976562 -4.273438 2.09375 -4.160156 2.25 -4.046875 C 2.414062 -3.941406 2.632812 -3.828125 2.90625 -3.703125 C 3.375 -3.492188 3.75 -3.296875 4.03125 -3.109375 C 4.320312 -2.921875 4.53125 -2.71875 4.65625 -2.5 C 4.789062 -2.28125 4.859375 -2.015625 4.859375 -1.703125 C 4.847656 -1.304688 4.742188 -0.960938 4.546875 -0.671875 C 4.359375 -0.390625 4.097656 -0.171875 3.765625 -0.015625 C 3.429688 0.128906 3.050781 0.203125 2.625 0.203125 Z M 2.625 0.203125 "/></g></g></g></g></g></g><g transform="matrix(1, 0, 0, 1, 94, 18)"><g clip-path="url(#59c75686ee)"><g fill="#132139" fill-opacity="1"><g transform="translate(0.481443, 20.261341)"><g><path d="M 6.0625 0.40625 C 5.351562 0.40625 4.703125 0.328125 4.109375 0.171875 C 3.523438 0.0234375 2.988281 -0.164062 2.5 -0.40625 C 2.007812 -0.65625 1.546875 -0.914062 1.109375 -1.1875 L 1.109375 -3.625 C 1.546875 -3.289062 2.03125 -2.972656 2.5625 -2.671875 C 3.09375 -2.367188 3.65625 -2.117188 4.25 -1.921875 C 4.84375 -1.734375 5.445312 -1.640625 6.0625 -1.640625 C 6.632812 -1.640625 7.144531 -1.753906 7.59375 -1.984375 C 8.050781 -2.210938 8.410156 -2.546875 8.671875 -2.984375 C 8.941406 -3.421875 9.078125 -3.953125 9.078125 -4.578125 C 9.078125 -5.242188 8.785156 -5.8125 8.203125 -6.28125 C 7.628906 -6.75 6.800781 -7.203125 5.71875 -7.640625 C 5.101562 -7.878906 4.523438 -8.132812 3.984375 -8.40625 C 3.441406 -8.6875 2.96875 -9.007812 2.5625 -9.375 C 2.15625 -9.75 1.832031 -10.1875 1.59375 -10.6875 C 1.363281 -11.195312 1.25 -11.800781 1.25 -12.5 C 1.25 -13.195312 1.375 -13.832031 1.625 -14.40625 C 1.882812 -14.976562 2.242188 -15.46875 2.703125 -15.875 C 3.160156 -16.28125 3.695312 -16.59375 4.3125 -16.8125 C 4.925781 -17.039062 5.597656 -17.15625 6.328125 -17.15625 C 7.097656 -17.15625 7.820312 -17.050781 8.5 -16.84375 C 9.175781 -16.644531 9.835938 -16.359375 10.484375 -15.984375 L 10.484375 -13.671875 C 9.910156 -14.109375 9.257812 -14.457031 8.53125 -14.71875 C 7.800781 -14.988281 7.082031 -15.125 6.375 -15.125 C 5.789062 -15.125 5.28125 -15.007812 4.84375 -14.78125 C 4.414062 -14.550781 4.078125 -14.234375 3.828125 -13.828125 C 3.585938 -13.421875 3.46875 -12.960938 3.46875 -12.453125 C 3.46875 -12.015625 3.554688 -11.640625 3.734375 -11.328125 C 3.910156 -11.023438 4.148438 -10.757812 4.453125 -10.53125 C 4.765625 -10.300781 5.117188 -10.097656 5.515625 -9.921875 C 5.910156 -9.753906 6.320312 -9.585938 6.75 -9.421875 C 7.6875 -9.078125 8.5 -8.679688 9.1875 -8.234375 C 9.875 -7.796875 10.40625 -7.273438 10.78125 -6.671875 C 11.15625 -6.078125 11.34375 -5.375 11.34375 -4.5625 C 11.34375 -3.769531 11.207031 -3.0625 10.9375 -2.4375 C 10.675781 -1.820312 10.304688 -1.300781 9.828125 -0.875 C 9.347656 -0.457031 8.785156 -0.140625 8.140625 0.078125 C 7.503906 0.296875 6.8125 0.40625 6.0625 0.40625 Z M 6.0625 0.40625 "/></g></g></g><g fill="#132139" fill-opacity="1"><g transform="translate(12.82717, 20.261341)"><g><path d="M 7.5 0.421875 C 6.570312 0.421875 5.710938 0.257812 4.921875 -0.0625 C 4.140625 -0.394531 3.457031 -0.859375 2.875 -1.453125 C 2.289062 -2.054688 1.832031 -2.765625 1.5 -3.578125 C 1.175781 -4.390625 1.015625 -5.273438 1.015625 -6.234375 C 1.015625 -7.179688 1.175781 -8.0625 1.5 -8.875 C 1.832031 -9.695312 2.289062 -10.40625 2.875 -11 C 3.457031 -11.601562 4.144531 -12.066406 4.9375 -12.390625 C 5.726562 -12.722656 6.585938 -12.890625 7.515625 -12.890625 C 8.265625 -12.890625 8.929688 -12.785156 9.515625 -12.578125 C 10.109375 -12.367188 10.648438 -12.082031 11.140625 -11.71875 L 11.25 -9.765625 C 10.800781 -10.191406 10.257812 -10.523438 9.625 -10.765625 C 9 -11.003906 8.34375 -11.125 7.65625 -11.125 C 7 -11.125 6.390625 -11 5.828125 -10.75 C 5.273438 -10.5 4.789062 -10.148438 4.375 -9.703125 C 3.957031 -9.265625 3.628906 -8.75 3.390625 -8.15625 C 3.160156 -7.5625 3.046875 -6.921875 3.046875 -6.234375 C 3.046875 -5.523438 3.160156 -4.875 3.390625 -4.28125 C 3.628906 -3.6875 3.957031 -3.164062 4.375 -2.71875 C 4.789062 -2.28125 5.28125 -1.9375 5.84375 -1.6875 C 6.40625 -1.445312 7.015625 -1.328125 7.671875 -1.328125 C 8.347656 -1.328125 8.992188 -1.445312 9.609375 -1.6875 C 10.234375 -1.9375 10.769531 -2.28125 11.21875 -2.71875 L 11.1875 -0.75 C 10.695312 -0.382812 10.15625 -0.0976562 9.5625 0.109375 C 8.96875 0.316406 8.28125 0.421875 7.5 0.421875 Z M 7.5 0.421875 "/></g></g></g><g fill="#132139" fill-opacity="1"><g transform="translate(25.369904, 20.261341)"><g><path d="M 3.015625 -14.578125 C 2.585938 -14.578125 2.234375 -14.707031 1.953125 -14.96875 C 1.671875 -15.226562 1.53125 -15.554688 1.53125 -15.953125 C 1.53125 -16.359375 1.671875 -16.691406 1.953125 -16.953125 C 2.234375 -17.210938 2.585938 -17.34375 3.015625 -17.34375 C 3.441406 -17.34375 3.789062 -17.210938 4.0625 -16.953125 C 4.34375 -16.691406 4.484375 -16.359375 4.484375 -15.953125 C 4.484375 -15.554688 4.34375 -15.226562 4.0625 -14.96875 C 3.789062 -14.707031 3.441406 -14.578125 3.015625 -14.578125 Z M 1.953125 0 L 1.953125 -12.46875 L 4.078125 -12.46875 L 4.078125 0 Z M 1.953125 0 "/></g></g></g><g fill="#132139" fill-opacity="1"><g transform="translate(31.400488, 20.261341)"><g><path d="M 8.796875 -9.15625 C 9.273438 -9.0625 9.726562 -8.890625 10.15625 -8.640625 C 10.59375 -8.398438 10.984375 -8.09375 11.328125 -7.71875 C 11.679688 -7.34375 11.957031 -6.910156 12.15625 -6.421875 C 12.351562 -5.929688 12.453125 -5.394531 12.453125 -4.8125 C 12.453125 -4.132812 12.320312 -3.503906 12.0625 -2.921875 C 11.8125 -2.335938 11.445312 -1.828125 10.96875 -1.390625 C 10.488281 -0.953125 9.910156 -0.609375 9.234375 -0.359375 C 8.554688 -0.117188 7.789062 0 6.9375 0 L 1.921875 0 L 1.921875 -16.71875 L 5.921875 -16.71875 C 6.972656 -16.71875 7.882812 -16.539062 8.65625 -16.1875 C 9.425781 -15.832031 10.019531 -15.335938 10.4375 -14.703125 C 10.863281 -14.078125 11.078125 -13.335938 11.078125 -12.484375 C 11.078125 -11.910156 10.96875 -11.398438 10.75 -10.953125 C 10.539062 -10.515625 10.265625 -10.144531 9.921875 -9.84375 C 9.578125 -9.539062 9.203125 -9.3125 8.796875 -9.15625 Z M 4.140625 -14.828125 L 4.140625 -9.53125 L 6.125 -9.53125 C 6.675781 -9.53125 7.160156 -9.648438 7.578125 -9.890625 C 7.992188 -10.140625 8.316406 -10.46875 8.546875 -10.875 C 8.773438 -11.28125 8.890625 -11.726562 8.890625 -12.21875 C 8.890625 -12.738281 8.765625 -13.191406 8.515625 -13.578125 C 8.273438 -13.972656 7.921875 -14.28125 7.453125 -14.5 C 6.992188 -14.71875 6.4375 -14.828125 5.78125 -14.828125 Z M 6.71875 -1.90625 C 7.445312 -1.90625 8.066406 -2.046875 8.578125 -2.328125 C 9.097656 -2.617188 9.492188 -3 9.765625 -3.46875 C 10.046875 -3.9375 10.1875 -4.441406 10.1875 -4.984375 C 10.1875 -5.390625 10.101562 -5.769531 9.9375 -6.125 C 9.769531 -6.488281 9.539062 -6.8125 9.25 -7.09375 C 8.96875 -7.375 8.644531 -7.59375 8.28125 -7.75 C 7.914062 -7.90625 7.523438 -7.984375 7.109375 -7.984375 L 4.140625 -7.984375 L 4.140625 -1.90625 Z M 6.71875 -1.90625 "/></g></g></g><g fill="#132139" fill-opacity="1"><g transform="translate(44.578021, 20.261341)"><g><path d="M 7.59375 0.421875 C 6.65625 0.421875 5.785156 0.257812 4.984375 -0.0625 C 4.179688 -0.394531 3.484375 -0.859375 2.890625 -1.453125 C 2.296875 -2.054688 1.832031 -2.765625 1.5 -3.578125 C 1.175781 -4.390625 1.015625 -5.273438 1.015625 -6.234375 C 1.015625 -7.179688 1.175781 -8.0625 1.5 -8.875 C 1.832031 -9.695312 2.296875 -10.40625 2.890625 -11 C 3.484375 -11.601562 4.179688 -12.066406 4.984375 -12.390625 C 5.785156 -12.722656 6.660156 -12.890625 7.609375 -12.890625 C 8.554688 -12.890625 9.429688 -12.722656 10.234375 -12.390625 C 11.035156 -12.066406 11.734375 -11.601562 12.328125 -11 C 12.921875 -10.40625 13.378906 -9.695312 13.703125 -8.875 C 14.035156 -8.0625 14.203125 -7.179688 14.203125 -6.234375 C 14.203125 -5.273438 14.035156 -4.390625 13.703125 -3.578125 C 13.378906 -2.765625 12.921875 -2.054688 12.328125 -1.453125 C 11.734375 -0.859375 11.03125 -0.394531 10.21875 -0.0625 C 9.414062 0.257812 8.539062 0.421875 7.59375 0.421875 Z M 7.625 -1.40625 C 8.269531 -1.40625 8.867188 -1.523438 9.421875 -1.765625 C 9.972656 -2.003906 10.453125 -2.335938 10.859375 -2.765625 C 11.273438 -3.203125 11.597656 -3.710938 11.828125 -4.296875 C 12.054688 -4.890625 12.171875 -5.535156 12.171875 -6.234375 C 12.171875 -6.921875 12.054688 -7.554688 11.828125 -8.140625 C 11.597656 -8.734375 11.273438 -9.25 10.859375 -9.6875 C 10.441406 -10.125 9.957031 -10.460938 9.40625 -10.703125 C 8.851562 -10.953125 8.257812 -11.078125 7.625 -11.078125 C 6.976562 -11.078125 6.378906 -10.953125 5.828125 -10.703125 C 5.273438 -10.460938 4.789062 -10.125 4.375 -9.6875 C 3.957031 -9.25 3.628906 -8.734375 3.390625 -8.140625 C 3.160156 -7.554688 3.046875 -6.921875 3.046875 -6.234375 C 3.046875 -5.535156 3.160156 -4.890625 3.390625 -4.296875 C 3.628906 -3.710938 3.957031 -3.203125 4.375 -2.765625 C 4.789062 -2.335938 5.273438 -2.003906 5.828125 -1.765625 C 6.390625 -1.523438 6.988281 -1.40625 7.625 -1.40625 Z M 7.625 -1.40625 "/></g></g></g><g fill="#132139" fill-opacity="1"><g transform="translate(59.802232, 20.261341)"><g><path d="M 9.046875 -12.609375 L 9.140625 -10.640625 C 8.816406 -10.773438 8.492188 -10.867188 8.171875 -10.921875 C 7.859375 -10.984375 7.554688 -11.015625 7.265625 -11.015625 C 6.660156 -11.015625 6.078125 -10.820312 5.515625 -10.4375 C 4.960938 -10.050781 4.484375 -9.503906 4.078125 -8.796875 L 4.078125 0 L 1.953125 0 L 1.953125 -12.46875 L 3.78125 -12.46875 L 4.046875 -10.828125 C 4.535156 -11.515625 5.070312 -12.03125 5.65625 -12.375 C 6.238281 -12.71875 6.835938 -12.890625 7.453125 -12.890625 C 7.734375 -12.890625 8.007812 -12.867188 8.28125 -12.828125 C 8.550781 -12.785156 8.804688 -12.710938 9.046875 -12.609375 Z M 9.046875 -12.609375 "/></g></g></g><g fill="#132139" fill-opacity="1"><g transform="translate(69.575936, 20.261341)"><g><path d="M 9.1875 -2.109375 C 10.195312 -2.109375 11.003906 -1.960938 11.609375 -1.671875 C 12.222656 -1.390625 12.664062 -1.007812 12.9375 -0.53125 C 13.21875 -0.0507812 13.359375 0.472656 13.359375 1.046875 C 13.359375 1.660156 13.179688 2.238281 12.828125 2.78125 C 12.484375 3.320312 11.992188 3.796875 11.359375 4.203125 C 10.734375 4.609375 10.003906 4.925781 9.171875 5.15625 C 8.335938 5.382812 7.441406 5.5 6.484375 5.5 C 5.710938 5.5 4.988281 5.425781 4.3125 5.28125 C 3.644531 5.144531 3.0625 4.9375 2.5625 4.65625 C 2.0625 4.375 1.671875 4.023438 1.390625 3.609375 C 1.109375 3.203125 0.96875 2.722656 0.96875 2.171875 C 0.96875 1.804688 1.066406 1.472656 1.265625 1.171875 C 1.460938 0.867188 1.726562 0.582031 2.0625 0.3125 C 2.40625 0.0390625 2.785156 -0.203125 3.203125 -0.421875 C 2.773438 -0.546875 2.445312 -0.742188 2.21875 -1.015625 C 2 -1.296875 1.847656 -1.625 1.765625 -2 C 1.691406 -2.375 1.65625 -2.769531 1.65625 -3.1875 L 3.28125 -4.8125 C 2.8125 -5.226562 2.441406 -5.726562 2.171875 -6.3125 C 1.910156 -6.894531 1.78125 -7.53125 1.78125 -8.21875 C 1.78125 -8.90625 1.90625 -9.535156 2.15625 -10.109375 C 2.414062 -10.679688 2.773438 -11.175781 3.234375 -11.59375 C 3.691406 -12.007812 4.222656 -12.328125 4.828125 -12.546875 C 5.441406 -12.773438 6.101562 -12.890625 6.8125 -12.890625 C 7.21875 -12.890625 7.609375 -12.851562 7.984375 -12.78125 C 8.359375 -12.707031 8.710938 -12.601562 9.046875 -12.46875 L 12.890625 -12.46875 L 12.890625 -10.84375 L 11.03125 -10.9375 C 11.3125 -10.5625 11.523438 -10.140625 11.671875 -9.671875 C 11.828125 -9.210938 11.90625 -8.722656 11.90625 -8.203125 C 11.90625 -7.535156 11.78125 -6.914062 11.53125 -6.34375 C 11.28125 -5.78125 10.925781 -5.289062 10.46875 -4.875 C 10.019531 -4.457031 9.488281 -4.128906 8.875 -3.890625 C 8.257812 -3.660156 7.582031 -3.546875 6.84375 -3.546875 C 6.375 -3.546875 5.925781 -3.59375 5.5 -3.6875 C 5.082031 -3.78125 4.691406 -3.921875 4.328125 -4.109375 L 3.390625 -3.203125 C 3.390625 -3.023438 3.414062 -2.851562 3.46875 -2.6875 C 3.53125 -2.519531 3.648438 -2.378906 3.828125 -2.265625 C 4.015625 -2.160156 4.285156 -2.109375 4.640625 -2.109375 Z M 6.828125 -11.03125 C 6.285156 -11.03125 5.796875 -10.910156 5.359375 -10.671875 C 4.921875 -10.441406 4.570312 -10.117188 4.3125 -9.703125 C 4.050781 -9.285156 3.921875 -8.800781 3.921875 -8.25 C 3.921875 -7.6875 4.050781 -7.191406 4.3125 -6.765625 C 4.570312 -6.335938 4.921875 -6.003906 5.359375 -5.765625 C 5.796875 -5.523438 6.285156 -5.40625 6.828125 -5.40625 C 7.378906 -5.40625 7.875 -5.523438 8.3125 -5.765625 C 8.757812 -6.003906 9.109375 -6.332031 9.359375 -6.75 C 9.617188 -7.175781 9.75 -7.664062 9.75 -8.21875 C 9.75 -8.78125 9.617188 -9.269531 9.359375 -9.6875 C 9.109375 -10.113281 8.757812 -10.441406 8.3125 -10.671875 C 7.875 -10.910156 7.378906 -11.03125 6.828125 -11.03125 Z M 6.5 3.78125 C 7.375 3.78125 8.144531 3.675781 8.8125 3.46875 C 9.476562 3.269531 10 2.988281 10.375 2.625 C 10.75 2.257812 10.9375 1.828125 10.9375 1.328125 C 10.9375 0.921875 10.867188 0.597656 10.734375 0.359375 C 10.597656 0.128906 10.367188 -0.0351562 10.046875 -0.140625 C 9.722656 -0.242188 9.289062 -0.296875 8.75 -0.296875 L 4.703125 -0.296875 C 4.210938 0.0859375 3.84375 0.453125 3.59375 0.796875 C 3.351562 1.148438 3.234375 1.550781 3.234375 2 C 3.234375 3.1875 4.320312 3.78125 6.5 3.78125 Z M 6.5 3.78125 "/></g></g></g></g></g><g transform="matrix(1, 0, 0, 1, 35, 13)"><g clip-path="url(#b7ebb42e7b)"><g clip-path="url(#3de9a29014)"><g clip-path="url(#2b4d1bde05)"><g transform="matrix(1, 0, 0, 1, 0.000000000000007105, 0.000000000000001776)"><g clip-path="url(#2077038b79)"><g clip-path="url(#a1d7f5036c)"><g clip-path="url(#7e65359938)"><path fill="#132139" d="M 0.175781 0.601562 L 52.824219 0.601562 L 52.824219 53.253906 L 0.175781 53.253906 Z M 0.175781 0.601562 " fill-opacity="1" fill-rule="nonzero"/></g></g></g></g></g></g><g clip-path="url(#c642a54855)"><path fill="#fbfaf3" d="M 21.699219 44.84375 C 20.460938 44.84375 19.042969 44.210938 18.210938 42.722656 C 16.800781 43.085938 15.214844 42.609375 14.042969 41.441406 C 13.046875 40.445312 12.597656 39.164062 12.777344 37.945312 C 12.234375 37.9375 11.675781 37.796875 11.136719 37.515625 C 10.382812 37.132812 9.71875 36.503906 9.257812 35.753906 C 8.804688 35.007812 8.582031 34.191406 8.613281 33.386719 C 8.636719 32.699219 8.855469 32.035156 9.246094 31.441406 C 8.722656 31.109375 8.300781 30.648438 8.003906 30.085938 C 7.644531 29.402344 7.484375 28.59375 7.542969 27.757812 C 7.648438 26.257812 8.421875 24.992188 9.550781 24.378906 C 9.011719 23.527344 8.820312 22.238281 9.117188 21.0625 C 9.496094 19.597656 10.558594 18.582031 12.082031 18.207031 C 11.644531 16.789062 12 15.25 13.078125 14.058594 C 14.207031 12.808594 15.835938 12.261719 17.378906 12.578125 C 17.507812 11.671875 17.890625 10.90625 18.511719 10.339844 C 19.191406 9.710938 20.113281 9.367188 21.109375 9.367188 C 22.125 9.367188 23.125 9.738281 23.851562 10.386719 C 24.433594 10.90625 25.125 11.84375 25.125 13.375 L 25.125 41.703125 C 25.125 41.734375 25.125 41.761719 25.121094 41.789062 C 24.855469 43.457031 23.710938 44.617188 22.140625 44.816406 C 21.996094 44.832031 21.851562 44.84375 21.699219 44.84375 Z M 18.480469 41.542969 C 18.6875 41.542969 18.882812 41.660156 18.96875 41.859375 C 19.621094 43.355469 20.964844 43.894531 22.007812 43.761719 C 23.09375 43.621094 23.859375 42.839844 24.0625 41.660156 L 24.0625 13.375 C 24.0625 11.441406 22.578125 10.429688 21.109375 10.429688 C 20.382812 10.429688 19.714844 10.675781 19.230469 11.121094 C 18.683594 11.625 18.394531 12.367188 18.394531 13.269531 C 18.394531 13.445312 18.308594 13.609375 18.167969 13.707031 C 18.023438 13.804688 17.839844 13.828125 17.675781 13.765625 C 16.359375 13.269531 14.867188 13.664062 13.867188 14.769531 C 13.128906 15.589844 12.585938 16.96875 13.292969 18.378906 C 13.371094 18.535156 13.367188 18.714844 13.285156 18.871094 C 13.199219 19.023438 13.050781 19.125 12.875 19.144531 C 11.03125 19.355469 10.375 20.449219 10.148438 21.328125 C 9.84375 22.523438 10.226562 23.78125 10.761719 24.160156 C 10.933594 24.28125 11.015625 24.488281 10.980469 24.691406 C 10.941406 24.898438 10.785156 25.0625 10.582031 25.109375 C 9.324219 25.417969 8.683594 26.699219 8.601562 27.832031 C 8.527344 28.902344 8.921875 30.238281 10.253906 30.769531 C 10.417969 30.835938 10.535156 30.972656 10.574219 31.144531 C 10.613281 31.3125 10.566406 31.492188 10.449219 31.621094 C 9.527344 32.636719 9.417969 33.976562 10.167969 35.199219 C 10.917969 36.429688 12.257812 37.105469 13.355469 36.808594 C 13.550781 36.757812 13.757812 36.820312 13.894531 36.972656 C 14.027344 37.121094 14.0625 37.335938 13.988281 37.523438 C 13.5625 38.574219 13.863281 39.757812 14.796875 40.691406 C 15.796875 41.6875 17.164062 42.039062 18.28125 41.582031 C 18.347656 41.554688 18.414062 41.542969 18.480469 41.542969 Z M 24.59375 41.703125 Z M 24.59375 41.703125 " fill-opacity="1" fill-rule="nonzero"/></g><path fill="#fbfaf3" d="M 20.160156 16.101562 C 20.132812 16.101562 20.101562 16.097656 20.074219 16.09375 C 19.003906 15.914062 18.234375 15.464844 17.792969 14.75 C 17.304688 13.964844 17.246094 12.894531 17.621094 11.652344 C 17.707031 11.371094 18.003906 11.214844 18.285156 11.296875 C 18.566406 11.382812 18.722656 11.679688 18.640625 11.960938 C 18.355469 12.902344 18.375 13.671875 18.695312 14.191406 C 18.96875 14.632812 19.492188 14.917969 20.246094 15.042969 C 20.535156 15.09375 20.730469 15.367188 20.683594 15.65625 C 20.640625 15.917969 20.414062 16.101562 20.160156 16.101562 Z M 20.160156 16.101562 " fill-opacity="1" fill-rule="nonzero"/><path fill="#fbfaf3" d="M 11.960938 25.707031 C 11.253906 25.707031 10.539062 25.394531 10.097656 24.984375 C 9.878906 24.789062 9.867188 24.449219 10.066406 24.234375 C 10.261719 24.019531 10.597656 24.003906 10.816406 24.203125 C 11.132812 24.496094 11.875 24.789062 12.378906 24.558594 C 12.648438 24.4375 12.960938 24.554688 13.082031 24.824219 C 13.207031 25.089844 13.085938 25.40625 12.820312 25.527344 C 12.546875 25.652344 12.253906 25.707031 11.960938 25.707031 Z M 11.960938 25.707031 " fill-opacity="1" fill-rule="nonzero"/><path fill="#fbfaf3" d="M 18.480469 42.597656 C 18.257812 42.597656 18.054688 42.460938 17.976562 42.238281 C 17.878906 41.960938 18.027344 41.660156 18.304688 41.5625 C 18.910156 41.355469 19.988281 40.65625 20.199219 39.359375 C 20.25 39.070312 20.523438 38.875 20.8125 38.921875 C 21.101562 38.96875 21.296875 39.242188 21.25 39.53125 C 20.992188 41.097656 19.761719 42.183594 18.652344 42.570312 C 18.59375 42.589844 18.535156 42.597656 18.480469 42.597656 Z M 18.480469 42.597656 " fill-opacity="1" fill-rule="nonzero"/><path fill="#fbfaf3" d="M 16.328125 21.085938 C 16.105469 21.085938 15.902344 20.949219 15.824219 20.726562 C 15.335938 19.289062 13.675781 19.0625 12.871094 19.144531 C 12.578125 19.175781 12.316406 18.960938 12.289062 18.667969 C 12.257812 18.378906 12.472656 18.117188 12.761719 18.085938 C 13.527344 18.007812 14.355469 18.140625 15.03125 18.445312 C 15.910156 18.84375 16.535156 19.511719 16.832031 20.382812 C 16.925781 20.664062 16.777344 20.964844 16.5 21.058594 C 16.441406 21.078125 16.386719 21.085938 16.328125 21.085938 Z M 16.328125 21.085938 " fill-opacity="1" fill-rule="nonzero"/><path fill="#fbfaf3" d="M 10.992188 31.953125 C 10.503906 31.953125 10.089844 31.859375 9.839844 31.75 C 9.574219 31.628906 9.453125 31.316406 9.570312 31.046875 C 9.691406 30.777344 10.007812 30.660156 10.273438 30.777344 C 10.542969 30.898438 11.34375 30.988281 12.078125 30.667969 C 12.738281 30.382812 13.214844 29.828125 13.492188 29.027344 C 13.585938 28.746094 13.890625 28.601562 14.167969 28.695312 C 14.445312 28.789062 14.59375 29.09375 14.496094 29.371094 C 14.125 30.453125 13.433594 31.238281 12.5 31.644531 C 11.980469 31.871094 11.453125 31.953125 10.992188 31.953125 Z M 10.992188 31.953125 " fill-opacity="1" fill-rule="nonzero"/><path fill="#fbfaf3" d="M 13.496094 37.855469 C 13.429688 37.855469 13.367188 37.84375 13.304688 37.820312 C 13.027344 37.710938 12.894531 37.40625 13 37.132812 C 13.390625 36.125 14.101562 35.289062 15 34.777344 C 15.910156 34.257812 16.910156 34.125 17.816406 34.40625 C 18.097656 34.492188 18.253906 34.789062 18.167969 35.070312 C 18.082031 35.347656 17.785156 35.507812 17.503906 35.421875 C 16.175781 35.011719 14.597656 35.953125 13.992188 37.515625 C 13.910156 37.726562 13.707031 37.855469 13.496094 37.855469 Z M 13.496094 37.855469 " fill-opacity="1" fill-rule="nonzero"/><path fill="#fbfaf3" d="M 17.820312 25.675781 C 17 25.675781 16.160156 25.375 15.492188 24.832031 C 14.785156 24.257812 14.363281 23.464844 14.332031 22.664062 C 14.320312 22.367188 14.546875 22.121094 14.839844 22.109375 C 15.132812 22.097656 15.382812 22.324219 15.394531 22.617188 C 15.414062 23.117188 15.695312 23.625 16.164062 24.007812 C 16.742188 24.480469 17.488281 24.695312 18.167969 24.585938 C 18.957031 24.457031 19.925781 23.859375 20.070312 22.59375 C 20.105469 22.300781 20.367188 22.09375 20.660156 22.125 C 20.953125 22.160156 21.160156 22.421875 21.128906 22.714844 C 21.039062 23.496094 20.707031 24.1875 20.167969 24.71875 C 19.679688 25.199219 19.027344 25.523438 18.335938 25.636719 C 18.167969 25.664062 17.992188 25.675781 17.820312 25.675781 Z M 17.820312 25.675781 " fill-opacity="1" fill-rule="nonzero"/><path fill="#fbfaf3" d="M 19.792969 37.449219 C 19.496094 37.449219 19.195312 37.410156 18.894531 37.328125 C 18.613281 37.25 18.445312 36.957031 18.523438 36.675781 C 18.601562 36.390625 18.894531 36.222656 19.175781 36.300781 C 20.367188 36.628906 21.253906 35.972656 21.652344 35.3125 C 21.996094 34.742188 22.070312 33.988281 21.855469 33.304688 C 21.679688 32.742188 21.328125 32.308594 20.886719 32.109375 C 20.617188 31.992188 20.5 31.675781 20.621094 31.40625 C 20.738281 31.140625 21.054688 31.019531 21.324219 31.140625 C 22.039062 31.464844 22.605469 32.136719 22.871094 32.984375 C 23.175781 33.957031 23.058594 35.03125 22.5625 35.859375 C 22.210938 36.445312 21.679688 36.914062 21.0625 37.183594 C 20.660156 37.363281 20.230469 37.449219 19.792969 37.449219 Z M 19.792969 37.449219 " fill-opacity="1" fill-rule="nonzero"/><path fill="#fbfaf3" d="M 24.59375 21.484375 C 24.589844 21.484375 24.589844 21.484375 24.585938 21.484375 C 24.292969 21.476562 24.058594 21.234375 24.0625 20.941406 C 24.085938 19.703125 23.347656 19.039062 22.644531 18.828125 C 21.941406 18.621094 20.949219 18.777344 20.28125 19.847656 C 20.125 20.09375 19.796875 20.171875 19.550781 20.015625 C 19.300781 19.859375 19.226562 19.53125 19.378906 19.28125 C 20.191406 17.984375 21.59375 17.40625 22.949219 17.8125 C 24.300781 18.210938 25.15625 19.449219 25.125 20.960938 C 25.121094 21.25 24.882812 21.484375 24.59375 21.484375 Z M 24.59375 21.484375 " fill-opacity="1" fill-rule="nonzero"/><path fill="#fbfaf3" d="M 24.59375 31.183594 C 24.335938 31.183594 24.109375 30.996094 24.070312 30.734375 C 23.820312 29.132812 22.683594 28.441406 21.703125 28.328125 C 20.734375 28.214844 19.371094 28.644531 18.730469 30.222656 C 18.621094 30.496094 18.3125 30.628906 18.039062 30.515625 C 17.765625 30.40625 17.636719 30.097656 17.746094 29.824219 C 18.109375 28.925781 18.707031 28.214844 19.476562 27.765625 C 20.179688 27.351562 21.015625 27.175781 21.828125 27.269531 C 23.546875 27.46875 24.839844 28.765625 25.121094 30.570312 C 25.167969 30.859375 24.96875 31.128906 24.675781 31.175781 C 24.648438 31.179688 24.621094 31.183594 24.59375 31.183594 Z M 24.59375 31.183594 " fill-opacity="1" fill-rule="nonzero"/><path fill="#ffffff" d="M 28.644531 44.277344 L 29.703125 44.277344 C 30.046875 44.277344 30.328125 44 30.328125 43.65625 L 30.328125 42.597656 C 30.328125 42.253906 30.046875 41.976562 29.703125 41.976562 L 28.644531 41.976562 C 28.300781 41.976562 28.023438 42.253906 28.023438 42.597656 L 28.023438 43.65625 C 28.023438 44 28.300781 44.277344 28.644531 44.277344 Z M 28.644531 44.277344 " fill-opacity="1" fill-rule="nonzero"/><g clip-path="url(#478f00b5e1)"><path fill="#ff9e3d" d="M 35.757812 38.503906 C 35.414062 38.503906 35.136719 38.226562 35.136719 37.882812 L 35.136719 34.28125 C 35.136719 34.128906 35.191406 33.988281 35.285156 33.878906 L 32.269531 30.449219 C 32.261719 30.449219 32.253906 30.453125 32.246094 30.453125 L 28.644531 30.453125 C 28.300781 30.453125 28.023438 30.171875 28.023438 29.828125 L 28.023438 26.230469 C 28.023438 25.886719 28.300781 25.609375 28.644531 25.609375 L 32.246094 25.609375 C 32.269531 25.609375 32.296875 25.609375 32.320312 25.613281 L 34.902344 22.753906 C 34.835938 22.65625 34.796875 22.539062 34.796875 22.414062 L 34.796875 18.8125 C 34.796875 18.800781 34.800781 18.792969 34.800781 18.78125 L 32.550781 15.570312 C 32.484375 15.597656 32.414062 15.613281 32.339844 15.613281 L 29.296875 15.613281 C 29.007812 15.613281 28.769531 15.375 28.769531 15.085938 L 28.769531 12.042969 C 28.769531 11.75 29.007812 11.515625 29.296875 11.515625 L 32.339844 11.515625 C 32.371094 11.515625 32.398438 11.519531 32.421875 11.523438 L 34.820312 8.964844 C 34.015625 4.171875 26.632812 4.8125 26.632812 9.976562 L 26.632812 44.746094 C 27.28125 48.820312 32.460938 49.042969 34.136719 45.199219 C 37.402344 46.53125 41.445312 43.027344 40.351562 39.640625 L 39.355469 38.503906 Z M 29.175781 19.410156 C 29.175781 19.066406 29.453125 18.789062 29.796875 18.789062 L 31.804688 18.789062 C 32.148438 18.789062 32.425781 19.066406 32.425781 19.410156 L 32.425781 21.417969 C 32.425781 21.761719 32.148438 22.039062 31.804688 22.039062 L 29.796875 22.039062 C 29.453125 22.039062 29.175781 21.761719 29.175781 21.417969 Z M 35.949219 41.816406 C 35.949219 42.160156 35.671875 42.4375 35.328125 42.4375 L 34.269531 42.4375 C 33.925781 42.4375 33.648438 42.160156 33.648438 41.816406 L 33.648438 40.757812 C 33.648438 40.699219 33.65625 40.640625 33.671875 40.585938 L 31.828125 38.503906 C 31.820312 38.503906 31.8125 38.503906 31.804688 38.503906 L 29.796875 38.503906 C 29.453125 38.503906 29.175781 38.226562 29.175781 37.882812 L 29.175781 35.875 C 29.175781 35.53125 29.453125 35.253906 29.796875 35.253906 L 31.804688 35.253906 C 32.148438 35.253906 32.425781 35.53125 32.425781 35.875 L 32.425781 37.882812 C 32.425781 37.96875 32.40625 38.050781 32.375 38.125 L 34.164062 40.144531 C 34.199219 40.140625 34.234375 40.136719 34.269531 40.136719 L 35.328125 40.136719 C 35.671875 40.136719 35.949219 40.414062 35.949219 40.757812 Z M 35.949219 41.816406 " fill-opacity="1" fill-rule="nonzero"/></g><path fill="#ff9e3d" d="M 43.683594 31.285156 L 42.625 31.285156 C 42.28125 31.285156 42.003906 31.003906 42.003906 30.664062 L 42.003906 29.601562 C 42.003906 29.261719 42.28125 28.980469 42.625 28.980469 L 43.683594 28.980469 C 44.027344 28.980469 44.304688 29.261719 44.304688 29.601562 L 44.304688 30.664062 C 44.304688 30.726562 44.296875 30.789062 44.277344 30.84375 L 44.996094 31.675781 C 48 29.921875 47.316406 24.769531 44.179688 23.800781 L 41.003906 26.738281 C 41.007812 26.753906 41.007812 26.773438 41.007812 26.789062 L 41.007812 28.792969 C 41.007812 29.136719 40.730469 29.414062 40.386719 29.414062 L 38.378906 29.414062 C 38.035156 29.414062 37.757812 29.136719 37.757812 28.792969 L 37.757812 26.789062 C 37.757812 26.445312 38.035156 26.167969 38.378906 26.167969 L 40.386719 26.167969 C 40.464844 26.167969 40.535156 26.179688 40.605469 26.207031 L 44.960938 22.171875 C 45.539062 20.144531 44.878906 17.0625 41.46875 16.464844 L 39.585938 18.554688 C 39.621094 18.632812 39.640625 18.71875 39.640625 18.8125 L 39.640625 22.414062 C 39.640625 22.753906 39.363281 23.035156 39.019531 23.035156 L 35.539062 23.035156 L 32.835938 26.03125 C 32.855469 26.09375 32.867188 26.160156 32.867188 26.230469 L 32.867188 29.828125 C 32.867188 29.914062 32.851562 29.996094 32.820312 30.070312 L 35.976562 33.660156 L 39.355469 33.660156 C 39.699219 33.660156 39.980469 33.941406 39.980469 34.28125 L 39.980469 37.882812 C 39.980469 37.976562 39.957031 38.066406 39.921875 38.144531 L 41.09375 39.476562 C 43.933594 39.472656 46.757812 35.839844 45.113281 32.824219 L 43.773438 31.277344 C 43.746094 31.28125 43.714844 31.285156 43.683594 31.285156 Z M 43.683594 31.285156 " fill-opacity="1" fill-rule="nonzero"/><path fill="#ff9e3d" d="M 32.867188 12.042969 L 32.867188 14.867188 L 35.21875 18.226562 C 35.28125 18.203125 35.351562 18.191406 35.421875 18.191406 L 39.019531 18.191406 L 41.421875 15.527344 C 42.34375 12.007812 38.5625 8.472656 34.910156 9.839844 L 32.867188 12.019531 C 32.867188 12.027344 32.867188 12.035156 32.867188 12.042969 Z M 36.285156 13.378906 C 36.285156 13.035156 36.566406 12.757812 36.910156 12.757812 L 37.96875 12.757812 C 38.3125 12.757812 38.589844 13.035156 38.589844 13.378906 L 38.589844 14.4375 C 38.589844 14.78125 38.3125 15.058594 37.96875 15.058594 L 36.910156 15.058594 C 36.566406 15.058594 36.285156 14.78125 36.285156 14.4375 Z M 36.285156 13.378906 " fill-opacity="1" fill-rule="nonzero"/></g></g></svg>